<?xml version="1.0" standalone="no"?>
<!DOCTYPE svg PUBLIC "-//W3C//DTD SVG 20010904//EN"
 "http://www.w3.org/TR/2001/REC-SVG-20010904/DTD/svg10.dtd">
<svg version="1.0" xmlns="http://www.w3.org/2000/svg"
 width="512.000000pt" height="512.000000pt" viewBox="0 0 512.000000 512.000000"
 preserveAspectRatio="xMidYMid meet">

<g transform="translate(0.000000,512.000000) scale(0.100000,-0.100000)"
fill="#000000" stroke="none">
<path d="M2405 5114 c-16 -2 -66 -9 -110 -15 -577 -75 -1105 -427 -1412 -939
-377 -631 -358 -1453 50 -2062 72 -107 1615 -2088 1627 -2088 12 0 1555 1981
1627 2088 219 327 337 750 320 1142 -23 506 -218 951 -572 1305 -297 298 -651
479 -1075 550 -91 15 -392 28 -455 19z m316 -305 c658 -66 1202 -506 1408
-1136 159 -486 76 -1031 -220 -1450 -61 -86 -1343 -1732 -1349 -1732 -6 0
-1288 1646 -1349 1732 -112 158 -199 347 -248 537 -145 566 18 1159 433 1574
353 353 834 525 1325 475z"/>
<path d="M2370 4505 c-287 -40 -550 -173 -761 -384 -456 -456 -527 -1158 -172
-1696 88 -133 245 -290 378 -378 257 -169 570 -248 868 -219 323 32 600 163
828 391 456 456 527 1158 172 1696 -88 133 -245 290 -378 378 -278 183 -607
258 -935 212z m333 -296 c415 -62 750 -354 865 -754 160 -552 -165 -1132 -723
-1293 -552 -160 -1132 165 -1293 723 -190 657 309 1325 996 1334 46 1 116 -4
155 -10z"/>
<path d="M2110 3170 l0 -750 150 0 150 0 0 300 0 300 164 0 c90 0 187 5 217
10 186 35 330 184 361 374 38 231 -126 461 -361 506 -30 5 -195 10 -367 10
l-314 0 0 -750z m670 430 c45 -23 80 -80 80 -130 0 -50 -35 -107 -80 -130 -35
-18 -59 -20 -205 -20 l-165 0 0 150 0 150 165 0 c146 0 170 -2 205 -20z"/>
</g>
</svg>
